<svg width="33" height="35" viewBox="0 0 33 35" fill="none" xmlns="http://www.w3.org/2000/svg">
<path fill-rule="evenodd" clip-rule="evenodd" d="M6.6396 5.264L7.469 8.90909L10.076 20.3764C10.3227 21.4615 10.773 22.4705 11.3949 23.3314C12.0168 24.1923 12.7951 24.8841 13.6743 25.3575C14.5536 25.8309 15.5122 26.0743 16.4819 26.0704C17.4517 26.0665 18.4088 25.8154 19.2852 25.3349L29.2248 19.8876C30.3541 19.2689 31.3084 18.2919 31.9767 17.0703C32.645 15.8487 32.9999 14.4327 33 12.9869V10.1818C33 8.83162 32.5364 7.53673 31.7113 6.582C30.8861 5.62727 29.767 5.09091 28.6 5.09091H10.0232L9.6932 3.72909C9.43603 2.65727 8.88253 1.71241 8.11734 1.03898C7.35215 0.365547 6.41739 0.000620587 5.456 0H1.65C1.21239 7.54479e-09 0.792709 0.201136 0.483274 0.55916C0.173839 0.917184 0 1.40277 0 1.90909C0 2.41541 0.173839 2.901 0.483274 3.25902C0.792709 3.61705 1.21239 3.81818 1.65 3.81818H5.456C5.69647 3.81802 5.93035 3.90903 6.12186 4.07729C6.31337 4.24554 6.45196 4.48177 6.5164 4.74982L6.6396 5.264ZM17.8728 21.8858L27.8124 16.4385C28.3772 16.1291 28.8545 15.6404 29.1886 15.0293C29.5228 14.4183 29.7001 13.71 29.7 12.9869V10.1818C29.7 9.84427 29.5841 9.52055 29.3778 9.28186C29.1715 9.04318 28.8917 8.90909 28.6 8.90909H10.8812L13.266 19.4065C13.3896 19.9489 13.6149 20.4531 13.926 20.8833C14.2371 21.3134 14.6262 21.659 15.0658 21.8955C15.5054 22.1319 15.9846 22.2534 16.4694 22.2513C16.9542 22.2492 17.4326 22.1235 17.8706 21.8833M26.4 35C27.4211 35 28.4003 34.5307 29.1224 33.6953C29.8444 32.8599 30.25 31.7269 30.25 30.5455C30.25 29.364 29.8444 28.231 29.1224 27.3956C28.4003 26.5602 27.4211 26.0909 26.4 26.0909C25.3789 26.0909 24.3997 26.5602 23.6776 27.3956C22.9556 28.231 22.55 29.364 22.55 30.5455C22.55 31.7269 22.9556 32.8599 23.6776 33.6953C24.3997 34.5307 25.3789 35 26.4 35ZM10.45 30.5455C10.45 31.1304 10.3504 31.7097 10.1569 32.2501C9.96346 32.7906 9.67987 33.2817 9.32236 33.6953C8.96486 34.1089 8.54043 34.4371 8.07333 34.6609C7.60623 34.8848 7.10559 35 6.6 35C6.09441 35 5.59377 34.8848 5.12667 34.6609C4.65956 34.4371 4.23514 34.1089 3.87764 33.6953C3.52013 33.2817 3.23654 32.7906 3.04306 32.2501C2.84958 31.7097 2.75 31.1304 2.75 30.5455C2.75 29.364 3.15562 28.231 3.87764 27.3956C4.59965 26.5602 5.57892 26.0909 6.6 26.0909C7.62108 26.0909 8.60035 26.5602 9.32236 27.3956C10.0444 28.231 10.45 29.364 10.45 30.5455Z" fill="white"/>
</svg>
