<svg width="33" height="35" viewBox="0 0 33 35" fill="none" xmlns="http://www.w3.org/2000/svg">
<path fill-rule="evenodd" clip-rule="evenodd" d="M0 2.38636C0 1.75346 0.193154 1.14648 0.536971 0.698949C0.880788 0.251419 1.3471 0 1.83333 0H31.1667C31.6529 0 32.1192 0.251419 32.463 0.698949C32.8068 1.14648 33 1.75346 33 2.38636C33 3.01927 32.8068 3.62625 32.463 4.07378C32.1192 4.52131 31.6529 4.77273 31.1667 4.77273H1.83333C1.3471 4.77273 0.880788 4.52131 0.536971 4.07378C0.193154 3.62625 0 3.01927 0 2.38636ZM0 17.5C0 16.8671 0.193154 16.2601 0.536971 15.8126C0.880788 15.3651 1.3471 15.1136 1.83333 15.1136H31.1667C31.6529 15.1136 32.1192 15.3651 32.463 15.8126C32.8068 16.2601 33 16.8671 33 17.5C33 18.1329 32.8068 18.7399 32.463 19.1874C32.1192 19.6349 31.6529 19.8864 31.1667 19.8864H1.83333C1.3471 19.8864 0.880788 19.6349 0.536971 19.1874C0.193154 18.7399 0 18.1329 0 17.5ZM1.83333 30.2273C1.3471 30.2273 0.880788 30.4787 0.536971 30.9262C0.193154 31.3738 0 31.9807 0 32.6136C0 33.2465 0.193154 33.8535 0.536971 34.301C0.880788 34.7486 1.3471 35 1.83333 35H31.1667C31.6529 35 32.1192 34.7486 32.463 34.301C32.8068 33.8535 33 33.2465 33 32.6136C33 31.9807 32.8068 31.3738 32.463 30.9262C32.1192 30.4787 31.6529 30.2273 31.1667 30.2273H1.83333Z" fill="white"/>
</svg>
