<svg width="36" height="34" viewBox="0 0 36 34" fill="none" xmlns="http://www.w3.org/2000/svg">
<path fill-rule="evenodd" clip-rule="evenodd" d="M25.985 14.6448C26.091 16.1433 25.9178 17.6469 25.4751 19.0696C25.0324 20.4923 24.329 21.8063 23.405 22.9366C22.4809 24.067 21.3544 24.9915 20.0896 25.6573C18.8249 26.3232 17.4468 26.7174 16.0339 26.8174C14.621 26.9174 13.2011 26.7213 11.8552 26.2402C10.5092 25.7592 9.26369 25.0026 8.18963 24.0138C7.11557 23.0249 6.23403 21.823 5.59534 20.4769C4.95665 19.1307 4.57332 17.6666 4.46724 16.1681C4.253 13.1417 5.18106 10.1591 7.04725 7.87628C8.91343 5.59349 11.5649 4.19755 14.4183 3.99555C17.2717 3.79355 20.0934 4.80205 22.2626 6.79918C24.4317 8.79631 25.7707 11.6185 25.985 14.6448ZM24.8753 26.8031C22.1609 29.3806 18.6131 30.7564 14.9544 30.6506C11.2956 30.5448 7.80085 28.9652 5.18157 26.2334C2.56229 23.5016 1.0154 19.8231 0.855791 15.9466C0.696187 12.07 1.93588 8.28702 4.32249 5.36763C6.7091 2.44823 10.0632 0.611938 13.702 0.232568C17.3408 -0.146802 20.9907 0.959276 23.9087 3.32563C26.8267 5.69198 28.7934 9.14071 29.4085 12.9697C30.0236 16.7988 29.2407 20.7202 27.2194 23.9358L34.3907 30.5384C34.5792 30.7 34.7354 30.9 34.8499 31.1263C34.9644 31.3527 35.0349 31.6008 35.0572 31.8558C35.0796 32.1109 35.0532 32.3677 34.9798 32.6109C34.9064 32.8541 34.7874 33.0787 34.6299 33.2713C34.4724 33.464 34.2797 33.6207 34.0632 33.7322C33.8467 33.8436 33.6108 33.9075 33.3697 33.9201C33.1287 33.9326 32.8873 33.8935 32.6599 33.8051C32.4326 33.7168 32.224 33.5809 32.0467 33.4057L24.8753 26.8031Z" fill="white"/>
</svg>
