<svg width="41" height="41" viewBox="0 0 41 41" fill="none" xmlns="http://www.w3.org/2000/svg">
<rect x="0.499973" y="0.213379" width="40" height="40" fill="#D9D9D9"/>
<path d="M9.6614 40.0983L30.9102 40.3259C36.0876 40.3813 40.3296 36.2292 40.3851 31.0518L40.6127 9.80303C40.6681 4.62565 36.516 0.383607 31.3386 0.328152L10.0898 0.100553C4.91245 0.045097 0.670401 4.19723 0.614945 9.3746L0.387346 30.6234C0.331891 35.8008 4.48402 40.0428 9.6614 40.0983Z" fill="url(#paint0_radial_1_207)"/>
<path d="M9.6614 40.0983L30.9102 40.3259C36.0876 40.3813 40.3296 36.2292 40.3851 31.0518L40.6127 9.80303C40.6681 4.62565 36.516 0.383607 31.3386 0.328152L10.0898 0.100553C4.91245 0.045097 0.670401 4.19723 0.614945 9.3746L0.387346 30.6234C0.331891 35.8008 4.48402 40.0428 9.6614 40.0983Z" fill="url(#paint1_radial_1_207)"/>
<path d="M20.3312 35.8375C24.5744 35.883 25.1073 35.8701 26.7745 35.8122C28.4387 35.7537 29.5769 35.5026 30.5744 35.1269C31.6065 34.7388 32.4839 34.2143 33.3615 33.3549C34.24 32.4957 34.7832 31.6297 35.1945 30.6067C35.5926 29.6172 35.8684 28.4841 35.961 26.8224C36.0534 25.1565 36.0787 24.624 36.1241 20.3806C36.1696 16.1373 36.1565 15.6062 36.0987 13.9389C36.04 12.2747 35.7889 11.1365 35.4134 10.139C35.0251 9.10696 34.5006 8.22957 33.6412 7.35187C32.7822 6.4734 31.9163 5.92894 30.8936 5.5189C29.9036 5.12187 28.7708 4.84644 27.1086 4.75238C25.4428 4.65876 24.9109 4.63446 20.6678 4.58901C16.4242 4.54356 15.8931 4.55647 14.2258 4.61439C12.5616 4.67282 11.4221 4.92391 10.4238 5.29965C9.39229 5.68769 8.51614 6.21349 7.63875 7.07336C6.76028 7.93244 6.21722 8.79839 5.80577 9.82138C5.41109 10.8111 5.13519 11.944 5.03926 13.6059C4.94657 15.2716 4.92135 15.8026 4.8759 20.0459C4.83045 24.2893 4.84427 24.8219 4.90126 26.4894C4.96157 28.1536 5.21314 29.2916 5.58654 30.2891C5.97598 31.3212 6.50036 32.1985 7.36023 33.0764C8.21993 33.9547 9.08338 34.4979 10.1076 34.9075C11.0995 35.3047 12.2328 35.5803 13.8953 35.6742C15.5611 35.7678 16.0915 35.7921 20.3361 35.8376L20.3312 35.8375ZM21.763 33.0369C21.347 33.0331 20.8828 33.0275 20.3614 33.0219C16.1896 32.9772 15.6954 32.9569 14.0488 32.8644C12.5262 32.7784 11.7021 32.5151 11.1537 32.2953C10.4275 32.0043 9.91132 31.6602 9.37065 31.1073C8.82966 30.5546 8.49682 30.0303 8.22074 29.2981C8.01274 28.7458 7.76677 27.9162 7.71371 26.3921C7.65651 24.7443 7.64557 24.2494 7.69023 20.0797C7.73489 15.9099 7.75644 15.4153 7.84892 13.7691C7.93492 12.2465 8.19829 11.4224 8.41808 10.8746C8.709 10.1484 9.05376 9.63288 9.60646 9.09221C10.1592 8.55122 10.682 8.21836 11.4145 7.94291C11.9669 7.73397 12.7971 7.48894 14.3212 7.43558C15.9691 7.37838 16.4639 7.36743 20.6357 7.41211C24.8077 7.4568 25.302 7.47835 26.9481 7.57083C28.4707 7.65745 29.2948 7.92083 29.8437 8.14062C30.5697 8.4317 31.087 8.77569 31.628 9.3284C32.169 9.8811 32.5018 10.4042 32.7779 11.1368C32.9859 11.6892 33.2319 12.5187 33.2849 14.0428C33.3421 15.6907 33.3518 16.1855 33.3072 20.3579C33.2625 24.5302 33.2422 25.0222 33.1497 26.6685C33.0637 28.1911 32.8003 29.0152 32.5805 29.5637C32.2895 30.2898 31.9448 30.8069 31.392 31.3479C30.8393 31.8889 30.3149 32.2219 29.5827 32.4978C29.0296 32.7068 28.1998 32.9518 26.6757 33.0055C25.2337 33.0552 24.6749 33.0687 21.763 33.0408L21.763 33.0369ZM12.049 30.3383C13.0841 30.3494 13.9329 29.5194 13.944 28.4842C13.9551 27.4491 13.1243 26.6003 12.0892 26.5892C11.0541 26.5781 10.2053 27.4089 10.1942 28.444C10.1831 29.4791 11.0139 30.3279 12.049 30.339L12.049 30.3383ZM20.4127 28.237C24.8436 28.2845 28.4747 24.7303 28.5222 20.2992C28.5697 15.868 25.0155 12.2387 20.5845 12.1912C16.1534 12.1438 12.5235 15.6962 12.4761 20.1273C12.4286 24.5583 15.9818 28.1896 20.413 28.237L20.4127 28.237ZM20.4428 25.4214C17.5666 25.3906 15.2596 23.034 15.2905 20.1575C15.3213 17.2812 17.6781 14.9743 20.5544 15.0051C23.4308 15.0359 25.7374 17.3928 25.7066 20.269C25.6758 23.1456 23.3192 25.4522 20.4428 25.4214Z" fill="white"/>
<defs>
<radialGradient id="paint0_radial_1_207" cx="0" cy="0" r="1" gradientUnits="userSpaceOnUse" gradientTransform="translate(30.1217 -2.76584) rotate(90.6137) scale(39.643 36.8711)">
<stop stop-color="#FFDD55"/>
<stop offset="0.1" stop-color="#FFDD55"/>
<stop offset="0.5" stop-color="#FF543E"/>
<stop offset="1" stop-color="#C837AB"/>
</radialGradient>
<radialGradient id="paint1_radial_1_207" cx="0" cy="0" r="1" gradientUnits="userSpaceOnUse" gradientTransform="translate(47.0153 37.6168) rotate(-100.705) scale(17.7206 73.045)">
<stop stop-color="#3771C8"/>
<stop offset="0.128" stop-color="#3771C8"/>
<stop offset="1" stop-color="#6600FF" stop-opacity="0"/>
</radialGradient>
</defs>
</svg>
