<svg width="41" height="41" viewBox="0 0 41 41" fill="none" xmlns="http://www.w3.org/2000/svg">
<rect x="0.713066" y="0.212891" width="40" height="40" fill="#D9D9D9"/>
<g clip-path="url(#clip0_1_217)">
<path d="M1.56666 19.9737C1.56572 23.3345 2.45072 26.616 4.13354 29.5084L1.40572 39.3909L11.5982 36.7391C14.4173 38.2619 17.5759 39.0598 20.7857 39.0601H20.7942C31.3903 39.0601 40.0157 30.5046 40.0203 19.9887C40.0223 14.8931 38.0242 10.1015 34.3938 6.4965C30.7642 2.89185 25.9368 0.905646 20.7934 0.90332C10.196 0.90332 1.57119 9.45836 1.56682 19.9737" fill="url(#paint0_linear_1_217)"/>
<path d="M0.880254 19.9673C0.87916 23.449 1.79588 26.8479 3.53869 29.8439L0.713066 40.0806L11.271 37.3338C14.1801 38.9076 17.4554 39.7374 20.7882 39.7386H20.7968C31.7731 39.7386 40.7084 30.8754 40.7131 19.9831C40.7149 14.7044 38.6449 9.74049 34.8849 6.00638C31.1245 2.27274 26.1245 0.215061 20.7968 0.212891C9.81869 0.212891 0.884629 9.07491 0.880254 19.9673ZM7.16791 29.3279L6.77369 28.707C5.1165 26.0924 4.24182 23.071 4.24307 19.9685C4.2465 10.9151 11.6721 3.54932 20.8031 3.54932C25.2249 3.55119 29.3806 5.26157 32.5062 8.36483C35.6317 11.4684 37.3515 15.594 37.3504 19.9819C37.3463 29.0354 29.9206 36.402 20.7968 36.402H20.7903C17.8195 36.4005 14.9059 35.6089 12.3649 34.1129L11.7603 33.7571L5.49494 35.387L7.16791 29.3279Z" fill="url(#paint1_linear_1_217)"/>
<path d="M15.819 11.7089C15.4462 10.8867 15.0539 10.8701 14.6993 10.8557C14.409 10.8433 14.0771 10.8443 13.7456 10.8443C13.4137 10.8443 12.8745 10.9681 12.4187 11.4619C11.9624 11.9562 10.6768 13.1506 10.6768 15.5799C10.6768 18.0092 12.4601 20.3571 12.7087 20.6869C12.9576 21.016 16.1513 26.1608 21.2095 28.1401C25.4132 29.7849 26.2687 29.4577 27.181 29.3753C28.0935 29.2931 30.1254 28.1812 30.5399 27.0281C30.9548 25.8753 30.9548 24.887 30.8304 24.6805C30.706 24.4748 30.3742 24.3512 29.8765 24.1044C29.3788 23.8576 26.9321 22.6629 26.476 22.4981C26.0198 22.3334 25.6881 22.2512 25.3562 22.7457C25.0243 23.2393 24.0714 24.3512 23.7809 24.6805C23.4907 25.0106 23.2003 25.0517 22.7028 24.8047C22.2048 24.557 20.6021 24.0362 18.7007 22.3542C17.2214 21.0453 16.2226 19.4291 15.9323 18.9346C15.642 18.441 15.9012 18.1734 16.1507 17.9274C16.3743 17.7061 16.6485 17.3508 16.8976 17.0625C17.1457 16.7742 17.2285 16.5684 17.3945 16.2391C17.5606 15.9095 17.4774 15.6212 17.3532 15.3742C17.2285 15.1272 16.2615 12.6852 15.819 11.7089Z" fill="white"/>
</g>
<defs>
<linearGradient id="paint0_linear_1_217" x1="1932.13" y1="3849.66" x2="1932.13" y2="0.90332" gradientUnits="userSpaceOnUse">
<stop stop-color="#1FAF38"/>
<stop offset="1" stop-color="#60D669"/>
</linearGradient>
<linearGradient id="paint1_linear_1_217" x1="2000.71" y1="3986.99" x2="2000.71" y2="0.212891" gradientUnits="userSpaceOnUse">
<stop stop-color="#F9F9F9"/>
<stop offset="1" stop-color="white"/>
</linearGradient>
<clipPath id="clip0_1_217">
<rect width="40" height="40" fill="white" transform="translate(0.713066 0.212891)"/>
</clipPath>
</defs>
</svg>
