<svg width="41" height="41" viewBox="0 0 41 41" fill="none" xmlns="http://www.w3.org/2000/svg">
<g clip-path="url(#clip0_1_215)">
<path d="M6.42735 0.212891C3.27557 0.212891 0.713066 2.77539 0.713066 5.92718V34.4986C0.713066 37.6504 3.27557 40.2129 6.42735 40.2129H34.9988C38.1506 40.2129 40.7131 37.6504 40.7131 34.4986V5.92718C40.7131 2.77539 38.1506 0.212891 34.9988 0.212891H6.42735ZM32.9541 7.71289L23.6863 18.3022L34.5881 32.7129H26.0524L19.3738 23.9718L11.722 32.7129H7.48092L17.3916 21.3825L6.93628 7.71289H15.6863L21.7309 15.704L28.7131 7.71289H32.9541ZM29.5791 30.1772L14.4095 10.1147H11.8827L27.222 30.1772H29.5702H29.5791Z" fill="black"/>
</g>
<defs>
<clipPath id="clip0_1_215">
<rect width="40" height="40" fill="white" transform="translate(0.713066 0.212891)"/>
</clipPath>
</defs>
</svg>
