<svg width="48" height="48" viewBox="0 0 48 48" fill="none" xmlns="http://www.w3.org/2000/svg">
<circle cx="24" cy="24" r="24" fill="white"/>
<g clip-path="url(#clip0_1_168)">
<path fill-rule="evenodd" clip-rule="evenodd" d="M29.075 22.6749C29.4261 23.0265 29.6233 23.503 29.6233 23.9999C29.6233 24.4968 29.4261 24.9733 29.075 25.3249L22.005 32.3974C21.6532 32.749 21.1762 32.9464 20.6789 32.9463C20.1816 32.9462 19.7047 32.7485 19.3531 32.3968C19.0015 32.045 18.8041 31.568 18.8042 31.0707C18.8043 30.5734 19.002 30.0965 19.3537 29.7449L25.0987 23.9999L19.3537 18.2549C19.012 17.9014 18.8228 17.4279 18.8268 16.9363C18.8309 16.4446 19.0278 15.9743 19.3753 15.6265C19.7228 15.2787 20.193 15.0812 20.6846 15.0767C21.1762 15.0722 21.6499 15.261 22.0037 15.6024L29.0762 22.6736L29.075 22.6749Z" fill="#00AFB9"/>
</g>
<defs>
<clipPath id="clip0_1_168">
<rect width="30" height="30" fill="white" transform="translate(9 9)"/>
</clipPath>
</defs>
</svg>
