<svg width="149" height="30" viewBox="0 0 149 30" fill="none" xmlns="http://www.w3.org/2000/svg">
<rect x="0.5" y="0.5" width="148" height="29" rx="7.5" fill="#A8A9B2" fill-opacity="0.44"/>
<rect x="0.5" y="0.5" width="148" height="29" rx="7.5" stroke="black"/>
<rect x="0.5" y="0.5" width="148" height="29" rx="7.5" stroke="black"/>
<path d="M11.392 23.5H8.59659L14.8778 6.04545H17.9205L24.2017 23.5H21.4062L16.4716 9.21591H16.3352L11.392 23.5ZM11.8608 16.6648H20.929V18.8807H11.8608V16.6648ZM31.2074 23.7557C30.1506 23.7557 29.2074 23.4858 28.3778 22.946C27.554 22.4006 26.9063 21.625 26.4347 20.6193C25.9688 19.608 25.7358 18.3949 25.7358 16.9801C25.7358 15.5653 25.9716 14.3551 26.4432 13.3494C26.9205 12.3437 27.5739 11.5739 28.4034 11.0398C29.233 10.5057 30.1733 10.2386 31.2244 10.2386C32.0369 10.2386 32.6903 10.375 33.1847 10.6477C33.6847 10.9148 34.071 11.2273 34.3438 11.5852C34.6222 11.9432 34.8381 12.2585 34.9915 12.5312H35.1449V6.04545H37.6932V23.5H35.2045V21.4631H34.9915C34.8381 21.7415 34.6165 22.0597 34.3267 22.4176C34.0426 22.7756 33.6506 23.0881 33.1506 23.3551C32.6506 23.6222 32.0028 23.7557 31.2074 23.7557ZM31.7699 21.5824C32.5028 21.5824 33.1222 21.3892 33.6278 21.0028C34.1392 20.6108 34.5256 20.0682 34.7869 19.375C35.054 18.6818 35.1875 17.875 35.1875 16.9545C35.1875 16.0455 35.0568 15.25 34.7955 14.5682C34.5341 13.8864 34.1506 13.3551 33.6449 12.9744C33.1392 12.5937 32.5142 12.4034 31.7699 12.4034C31.0028 12.4034 30.3636 12.6023 29.8523 13C29.3409 13.3977 28.9545 13.9403 28.6932 14.6278C28.4375 15.3153 28.3097 16.0909 28.3097 16.9545C28.3097 17.8295 28.4403 18.6165 28.7017 19.3153C28.9631 20.0142 29.3494 20.5682 29.8608 20.9773C30.3778 21.3807 31.0142 21.5824 31.7699 21.5824ZM46.2308 23.7557C45.174 23.7557 44.2308 23.4858 43.4013 22.946C42.5774 22.4006 41.9297 21.625 41.4581 20.6193C40.9922 19.608 40.7592 18.3949 40.7592 16.9801C40.7592 15.5653 40.995 14.3551 41.4666 13.3494C41.9439 12.3437 42.5973 11.5739 43.4268 11.0398C44.2564 10.5057 45.1967 10.2386 46.2479 10.2386C47.0604 10.2386 47.7138 10.375 48.2081 10.6477C48.7081 10.9148 49.0945 11.2273 49.3672 11.5852C49.6456 11.9432 49.8615 12.2585 50.0149 12.5312H50.1683V6.04545H52.7166V23.5H50.228V21.4631H50.0149C49.8615 21.7415 49.6399 22.0597 49.3501 22.4176C49.0661 22.7756 48.674 23.0881 48.174 23.3551C47.674 23.6222 47.0263 23.7557 46.2308 23.7557ZM46.7933 21.5824C47.5263 21.5824 48.1456 21.3892 48.6513 21.0028C49.1626 20.6108 49.549 20.0682 49.8104 19.375C50.0774 18.6818 50.2109 17.875 50.2109 16.9545C50.2109 16.0455 50.0803 15.25 49.8189 14.5682C49.5575 13.8864 49.174 13.3551 48.6683 12.9744C48.1626 12.5937 47.5376 12.4034 46.7933 12.4034C46.0263 12.4034 45.3871 12.6023 44.8757 13C44.3643 13.3977 43.978 13.9403 43.7166 14.6278C43.4609 15.3153 43.3331 16.0909 43.3331 16.9545C43.3331 17.8295 43.4638 18.6165 43.7251 19.3153C43.9865 20.0142 44.3729 20.5682 44.8842 20.9773C45.4013 21.3807 46.0376 21.5824 46.7933 21.5824ZM68.8161 10.4091V12.4545H61.6655V10.4091H68.8161ZM63.5831 7.27273H66.1314V19.6562C66.1314 20.1506 66.2053 20.5227 66.353 20.7727C66.5007 21.017 66.6911 21.1847 66.924 21.2756C67.1626 21.3608 67.4212 21.4034 67.6996 21.4034C67.9041 21.4034 68.0831 21.3892 68.2365 21.3608C68.3899 21.3324 68.5092 21.3097 68.5945 21.2926L69.0547 23.3977C68.907 23.4545 68.6967 23.5114 68.424 23.5682C68.1513 23.6307 67.8104 23.6648 67.4013 23.6705C66.7308 23.6818 66.1058 23.5625 65.5263 23.3125C64.9467 23.0625 64.478 22.6761 64.12 22.1534C63.7621 21.6307 63.5831 20.9744 63.5831 20.1847V7.27273ZM77.0085 23.7642C75.7813 23.7642 74.7102 23.483 73.7955 22.9205C72.8807 22.358 72.1705 21.571 71.6648 20.5597C71.1591 19.5483 70.9062 18.3665 70.9062 17.0142C70.9062 15.6562 71.1591 14.4687 71.6648 13.4517C72.1705 12.4347 72.8807 11.6449 73.7955 11.0824C74.7102 10.5199 75.7813 10.2386 77.0085 10.2386C78.2358 10.2386 79.3068 10.5199 80.2216 11.0824C81.1364 11.6449 81.8466 12.4347 82.3523 13.4517C82.858 14.4687 83.1108 15.6562 83.1108 17.0142C83.1108 18.3665 82.858 19.5483 82.3523 20.5597C81.8466 21.571 81.1364 22.358 80.2216 22.9205C79.3068 23.483 78.2358 23.7642 77.0085 23.7642ZM77.017 21.625C77.8125 21.625 78.4716 21.4148 78.9943 20.9943C79.517 20.5739 79.9034 20.0142 80.1534 19.3153C80.4091 18.6165 80.5369 17.8466 80.5369 17.0057C80.5369 16.1705 80.4091 15.4034 80.1534 14.7045C79.9034 14 79.517 13.4347 78.9943 13.0085C78.4716 12.5824 77.8125 12.3693 77.017 12.3693C76.2159 12.3693 75.5511 12.5824 75.0227 13.0085C74.5 13.4347 74.1108 14 73.8551 14.7045C73.6051 15.4034 73.4801 16.1705 73.4801 17.0057C73.4801 17.8466 73.6051 18.6165 73.8551 19.3153C74.1108 20.0142 74.5 20.5739 75.0227 20.9943C75.5511 21.4148 76.2159 21.625 77.017 21.625ZM107.009 11.7216H104.349C104.247 11.1534 104.057 10.6534 103.778 10.2216C103.5 9.78977 103.159 9.4233 102.756 9.12216C102.352 8.82102 101.901 8.59375 101.401 8.44034C100.906 8.28693 100.381 8.21023 99.8239 8.21023C98.8182 8.21023 97.9176 8.46307 97.1222 8.96875C96.3324 9.47443 95.7074 10.2159 95.2472 11.1932C94.7926 12.1705 94.5653 13.3636 94.5653 14.7727C94.5653 16.1932 94.7926 17.392 95.2472 18.3693C95.7074 19.3466 96.3352 20.0852 97.1307 20.5852C97.9261 21.0852 98.821 21.3352 99.8153 21.3352C100.366 21.3352 100.889 21.2614 101.384 21.1136C101.884 20.9602 102.335 20.7358 102.739 20.4403C103.142 20.1449 103.483 19.7841 103.761 19.358C104.045 18.9261 104.241 18.4318 104.349 17.875L107.009 17.8835C106.866 18.7415 106.591 19.5312 106.182 20.2528C105.778 20.9688 105.259 21.5881 104.622 22.1108C103.991 22.6278 103.27 23.0284 102.457 23.3125C101.645 23.5966 100.759 23.7386 99.7983 23.7386C98.2869 23.7386 96.9403 23.3807 95.7585 22.6648C94.5767 21.9432 93.6449 20.9119 92.9631 19.571C92.2869 18.2301 91.9489 16.6307 91.9489 14.7727C91.9489 12.9091 92.2898 11.3097 92.9716 9.97443C93.6534 8.63352 94.5852 7.60511 95.767 6.8892C96.9489 6.16761 98.2926 5.80682 99.7983 5.80682C100.724 5.80682 101.588 5.94034 102.389 6.20739C103.196 6.46875 103.92 6.85511 104.562 7.36648C105.205 7.87216 105.736 8.49148 106.156 9.22443C106.577 9.9517 106.861 10.7841 107.009 11.7216ZM113.765 23.7898C112.935 23.7898 112.185 23.6364 111.515 23.3295C110.844 23.017 110.313 22.5653 109.921 21.9744C109.535 21.3835 109.342 20.6591 109.342 19.8011C109.342 19.0625 109.484 18.4545 109.768 17.9773C110.052 17.5 110.435 17.1222 110.918 16.8438C111.401 16.5653 111.941 16.3551 112.538 16.2131C113.134 16.071 113.742 15.9631 114.362 15.8892C115.146 15.7983 115.782 15.7244 116.271 15.6676C116.759 15.6051 117.114 15.5057 117.336 15.3693C117.558 15.233 117.668 15.0114 117.668 14.7045V14.6449C117.668 13.9006 117.458 13.3239 117.038 12.9148C116.623 12.5057 116.004 12.3011 115.18 12.3011C114.322 12.3011 113.646 12.4915 113.151 12.8722C112.663 13.2472 112.325 13.6648 112.137 14.125L109.742 13.5795C110.026 12.7841 110.441 12.142 110.987 11.6534C111.538 11.1591 112.171 10.8011 112.887 10.5795C113.603 10.3523 114.356 10.2386 115.146 10.2386C115.668 10.2386 116.222 10.3011 116.808 10.4261C117.398 10.5455 117.95 10.767 118.461 11.0909C118.978 11.4148 119.401 11.8778 119.731 12.4801C120.06 13.0767 120.225 13.8523 120.225 14.8068V23.5H117.737V21.7102H117.634C117.469 22.0398 117.222 22.3636 116.893 22.6818C116.563 23 116.14 23.2642 115.623 23.4744C115.106 23.6847 114.487 23.7898 113.765 23.7898ZM114.319 21.7443C115.023 21.7443 115.626 21.6051 116.126 21.3267C116.631 21.0483 117.015 20.6847 117.276 20.2358C117.543 19.7812 117.677 19.2955 117.677 18.7784V17.0909C117.586 17.1818 117.41 17.267 117.148 17.3466C116.893 17.4205 116.6 17.4858 116.271 17.5426C115.941 17.5937 115.62 17.642 115.308 17.6875C114.995 17.7273 114.734 17.7614 114.523 17.7898C114.029 17.8523 113.577 17.9574 113.168 18.1051C112.765 18.2528 112.441 18.4659 112.197 18.7443C111.958 19.017 111.839 19.3807 111.839 19.8352C111.839 20.4659 112.072 20.9432 112.538 21.267C113.004 21.5852 113.597 21.7443 114.319 21.7443ZM123.619 23.5V10.4091H126.082V12.4886H126.219C126.457 11.7841 126.878 11.2301 127.48 10.8267C128.088 10.4176 128.776 10.2131 129.543 10.2131C129.702 10.2131 129.889 10.2187 130.105 10.2301C130.327 10.2415 130.5 10.2557 130.625 10.2727V12.7102C130.523 12.6818 130.341 12.6506 130.08 12.6165C129.818 12.5767 129.557 12.5568 129.295 12.5568C128.693 12.5568 128.156 12.6847 127.685 12.9403C127.219 13.1903 126.849 13.5398 126.577 13.9886C126.304 14.4318 126.168 14.9375 126.168 15.5057V23.5H123.619ZM139.714 10.4091V12.4545H132.564V10.4091H139.714ZM134.482 7.27273H137.03V19.6562C137.03 20.1506 137.104 20.5227 137.251 20.7727C137.399 21.017 137.589 21.1847 137.822 21.2756C138.061 21.3608 138.32 21.4034 138.598 21.4034C138.803 21.4034 138.982 21.3892 139.135 21.3608C139.288 21.3324 139.408 21.3097 139.493 21.2926L139.953 23.3977C139.805 23.4545 139.595 23.5114 139.322 23.5682C139.05 23.6307 138.709 23.6648 138.3 23.6705C137.629 23.6818 137.004 23.5625 136.425 23.3125C135.845 23.0625 135.376 22.6761 135.018 22.1534C134.661 21.6307 134.482 20.9744 134.482 20.1847V7.27273Z" fill="white"/>
</svg>
